<svg width="82" height="92" viewBox="0 0 82 92" fill="none" xmlns="http://www.w3.org/2000/svg">
<path d="M1.75011 83.5189C0.92168 83.5189 0.250107 84.1904 0.250107 85.0189C0.250107 85.8473 0.92168 86.5189 1.75011 86.5189V83.5189ZM80.025 86.5189C80.8535 86.5189 81.525 85.8473 81.525 85.0189C81.525 84.1904 80.8535 83.5189 80.025 83.5189V86.5189ZM60.4563 85.0189V83.5189C59.6279 83.5189 58.9563 84.1904 58.9563 85.0189H60.4563ZM21.3188 85.0189H22.8188C22.8188 84.1904 22.1473 83.5189 21.3188 83.5189V85.0189ZM21.3188 90H19.8188C19.8188 90.8284 20.4904 91.5 21.3188 91.5V90ZM60.4563 90V91.5C61.2847 91.5 61.9563 90.8284 61.9563 90H60.4563ZM80.025 38.0539L81.2992 38.8454C81.5866 38.3829 81.6006 37.8009 81.336 37.325C81.0714 36.849 80.5696 36.5539 80.025 36.5539V38.0539ZM1.75011 38.0539V36.5539C1.2115 36.5539 0.714237 36.8427 0.447294 37.3105C0.180351 37.7783 0.184711 38.3533 0.458717 38.817L1.75011 38.0539ZM5.30806 33.0728L4.5156 31.7992C4.14415 32.0303 3.89211 32.4121 3.82553 32.8445C3.75895 33.2769 3.88446 33.7168 4.16917 34.049L5.30806 33.0728ZM76.4671 33.0728L77.606 34.049C77.8907 33.7168 78.0162 33.2769 77.9496 32.8445C77.883 32.4121 77.631 32.0303 77.2596 31.7992L76.4671 33.0728ZM61.0958 27.5199L61.3973 26.0505L61.0958 27.5199ZM60.4563 86.5189H80.025V83.5189H60.4563V86.5189ZM1.75011 86.5189H21.3188V83.5189H1.75011V86.5189ZM22.8188 90V85.0189H19.8188V90H22.8188ZM61.9563 90V85.0189H58.9563V90H61.9563ZM21.3188 91.5H60.4563V88.5H21.3188V91.5ZM50.8498 86.5189H80.025V83.5189H50.8498V86.5189ZM52.124 85.8104L81.2992 38.8454L78.7509 37.2624L49.5757 84.2273L52.124 85.8104ZM1.75011 86.5189H29.5021V83.5189H1.75011V86.5189ZM0.458717 38.817L28.2107 85.7819L30.7935 84.2558L3.0415 37.2908L0.458717 38.817ZM9.5776 36.5539H1.75011V39.5539H9.5776V36.5539ZM10.7165 37.0777L6.44694 32.0966L4.16917 34.049L8.43872 39.0301L10.7165 37.0777ZM80.025 36.5539H72.1975V39.5539H80.025V36.5539ZM73.3364 39.0301L77.606 34.049L75.3282 32.0966L71.0587 37.0777L73.3364 39.0301ZM29.5021 86.5189H40.176V83.5189H29.5021V86.5189ZM40.176 86.5189H50.8498V83.5189H40.176V86.5189ZM77.2596 31.7992C73.1039 29.2134 67.5593 27.3149 61.3973 26.0505L60.7943 28.9892C66.768 30.215 71.9333 32.0184 75.6746 34.3463L77.2596 31.7992ZM61.3973 26.0505C51.969 24.1158 40.8888 23.6243 30.6375 24.5616C20.4237 25.4955 10.838 27.8652 4.5156 31.7992L6.10052 34.3463C11.8404 30.7748 20.8803 28.4662 30.9106 27.5491C40.9035 26.6355 51.686 27.1203 60.7943 28.9892L61.3973 26.0505ZM72.1975 36.5539H54.9566V39.5539H72.1975V36.5539ZM54.9566 36.5539H9.5776V39.5539H54.9566V36.5539Z" fill="#2F2923"/>
<path d="M58.6572 28.5955L57.0581 31.7939" stroke="black" stroke-linecap="round"/>
<path d="M56.2445 33.3831L54.6453 36.5815" stroke="black" stroke-linecap="round" stroke-linejoin="round"/>
<path d="M40.8876 19.6318C41.4591 19.6318 41.9224 19.1685 41.9224 18.597C41.9224 18.0255 41.4591 17.5622 40.8876 17.5622C40.3161 17.5622 39.8528 18.0255 39.8528 18.597C39.8528 19.1685 40.3161 19.6318 40.8876 19.6318Z" stroke="black"/>
<path d="M50.0964 2.5696C50.6679 2.5696 51.1312 2.1063 51.1312 1.5348C51.1312 0.963296 50.6679 0.5 50.0964 0.5C49.5249 0.5 49.0616 0.963296 49.0616 1.5348C49.0616 2.1063 49.5249 2.5696 50.0964 2.5696Z" stroke="black"/>
<path d="M34.7484 8.2228C35.3199 8.2228 35.7832 7.7595 35.7832 7.188C35.7832 6.61649 35.3199 6.1532 34.7484 6.1532C34.1769 6.1532 33.7136 6.61649 33.7136 7.188C33.7136 7.7595 34.1769 8.2228 34.7484 8.2228Z" stroke="black"/>
<path d="M37.818 13.8756C38.3895 13.8756 38.8528 13.4123 38.8528 12.8408C38.8528 12.2693 38.3895 11.806 37.818 11.806C37.2465 11.806 36.7832 12.2693 36.7832 12.8408C36.7832 13.4123 37.2465 13.8756 37.818 13.8756Z" stroke="black"/>
<path d="M43.9572 13.8756C44.5287 13.8756 44.992 13.4123 44.992 12.8408C44.992 12.2693 44.5287 11.806 43.9572 11.806C43.3857 11.806 42.9224 12.2693 42.9224 12.8408C42.9224 13.4123 43.3857 13.8756 43.9572 13.8756Z" stroke="black"/>
<path d="M47.0268 8.2228C47.5983 8.2228 48.0616 7.7595 48.0616 7.188C48.0616 6.61649 47.5983 6.1532 47.0268 6.1532C46.4553 6.1532 45.992 6.61649 45.992 7.188C45.992 7.7595 46.4553 8.2228 47.0268 8.2228Z" stroke="black"/>
<path d="M40.8876 8.2228C41.4591 8.2228 41.9224 7.7595 41.9224 7.188C41.9224 6.61649 41.4591 6.1532 40.8876 6.1532C40.3161 6.1532 39.8528 6.61649 39.8528 7.188C39.8528 7.7595 40.3161 8.2228 40.8876 8.2228Z" stroke="black"/>
<path d="M31.6788 2.5696C32.2503 2.5696 32.7136 2.1063 32.7136 1.5348C32.7136 0.963296 32.2503 0.5 31.6788 0.5C31.1073 0.5 30.644 0.963296 30.644 1.5348C30.644 2.1063 31.1073 2.5696 31.6788 2.5696Z" stroke="black"/>
<path d="M43.9572 2.5696C44.5287 2.5696 44.992 2.1063 44.992 1.5348C44.992 0.963296 44.5287 0.5 43.9572 0.5C43.3857 0.5 42.9224 0.963296 42.9224 1.5348C42.9224 2.1063 43.3857 2.5696 43.9572 2.5696Z" stroke="black"/>
<path d="M37.818 2.5696C38.3895 2.5696 38.8528 2.1063 38.8528 1.5348C38.8528 0.963296 38.3895 0.5 37.818 0.5C37.2465 0.5 36.7832 0.963296 36.7832 1.5348C36.7832 2.1063 37.2465 2.5696 37.818 2.5696Z" stroke="black"/>
</svg>
