<svg width="48" height="94" viewBox="0 0 48 94" fill="none" xmlns="http://www.w3.org/2000/svg">
<g clip-path="url(#clip0)">
<path fill-rule="evenodd" clip-rule="evenodd" d="M43.4778 35.75C43.1028 32.375 42.3528 30.5 40.8528 30.125H33.7278H24.7278H20.6028H11.6028H4.4778C2.9778 30.5 2.2278 32.375 1.8528 35.75V81.5H7.1028V53H20.6028H24.7278H38.2278V81.5H43.4778V68.375V64.25V35.75ZM27.7278 44C28.1028 44.375 28.2962 45.7465 22.8528 47.75C17.4094 45.7465 17.6028 44.375 17.9778 44C18.3528 43.625 19.6882 43.2843 22.8528 43.25C26.0174 43.2843 27.3528 43.625 27.7278 44Z" fill="#85817D"/>
<path d="M41.2278 92C42.2669 90.8034 42.7792 88.8606 43.4778 81.5H38.2278H24.7278H20.6028H7.1028H1.8528C2.55144 88.8606 3.06366 90.8034 4.1028 92H20.6028H24.7278H41.2278Z" fill="#85817D"/>
<path d="M45.3528 64.25H43.4778V68.375H45.3528C45.9823 66.764 45.9346 65.8611 45.3528 64.25Z" fill="#85817D"/>
<path d="M22.8528 47.75C28.2962 45.7465 28.1028 44.375 27.7278 44C27.3528 43.625 26.0174 43.2843 22.8528 43.25C19.6882 43.2843 18.3528 43.625 17.9778 44C17.6028 44.375 17.4094 45.7465 22.8528 47.75Z" fill="#85817D"/>
<path d="M20.6028 81.5H24.7278H38.2278V53H24.7278H20.6028H7.1028V81.5H20.6028Z" fill="#85817D"/>
<path d="M41.2278 92V93.5H41.9118L42.3603 92.9835L41.2278 92ZM43.4778 81.5L44.9711 81.6417L44.9778 81.571V81.5H43.4778ZM43.4778 35.75H44.9778V35.6669L44.9686 35.5844L43.4778 35.75ZM40.8528 30.125L41.2166 28.6698L41.0375 28.625H40.8528V30.125ZM43.4778 7.625L44.8339 8.26607L44.9778 7.625H43.4778ZM43.4778 5H44.9778V3.85636L43.875 3.55354L43.4778 5ZM38.2278 53H39.7278V51.5H38.2278V53ZM1.8528 81.5H0.352798V81.571L0.35951 81.6417L1.8528 81.5ZM4.1028 92L2.97025 92.9835L3.41876 93.5H4.1028V92ZM1.8528 35.75L0.361973 35.5844L0.352798 35.6669V35.75H1.8528ZM4.4778 30.125V28.625H4.29314L4.114 28.6698L4.4778 30.125ZM1.8528 7.625H0.352798L0.49669 8.26607L1.8528 7.625ZM1.8528 5L1.45562 3.55354L0.352798 3.85636V5H1.8528ZM7.1028 53V51.5H5.6028V53H7.1028ZM45.3528 64.25L46.7636 63.7405L46.4059 62.75H45.3528V64.25ZM45.3528 68.375V69.875H46.3771L46.7499 68.9209L45.3528 68.375ZM22.8528 47.75L22.3347 49.1577C22.6691 49.2808 23.0365 49.2808 23.3709 49.1577L22.8528 47.75ZM22.8528 43.25L22.8691 41.7501L22.8528 41.7499L22.8365 41.7501L22.8528 43.25ZM41.9845 81.3583C41.6351 85.0391 41.3391 87.2815 41.0161 88.7364C40.6994 90.1629 40.3883 90.679 40.0952 91.0165L42.3603 92.9835C43.1064 92.1244 43.571 91.0708 43.9448 89.3866C44.3124 87.7308 44.6218 85.3215 44.9711 81.6417L41.9845 81.3583ZM40.489 31.5802C40.6378 31.6174 40.9084 31.7373 41.2193 32.428C41.5437 33.1489 41.8046 34.2746 41.987 35.9156L44.9686 35.5844C44.776 33.8504 44.4744 32.3511 43.9551 31.197C43.4222 30.0127 42.5678 29.0076 41.2166 28.6698L40.489 31.5802ZM20.6028 93.5H41.2278V90.5H20.6028V93.5ZM33.7278 31.625H40.8528V28.625H33.7278V31.625ZM32.2278 28.25V30.125H35.2278V28.25H32.2278ZM35.0839 28.8911L44.8339 8.26607L42.1217 6.98393L32.3717 27.6089L35.0839 28.8911ZM44.9778 7.625V5H41.9778V7.625H44.9778ZM20.6028 6.5H43.4778V3.5H20.6028V6.5ZM20.592 3.49996C29.7665 3.56579 34.6662 4.13594 43.0806 6.44646L43.875 3.55354C35.1717 1.1637 30.0078 0.567447 20.6136 0.500038L20.592 3.49996ZM20.6028 83H38.2278V80H20.6028V83ZM38.2278 83H43.4778V80H38.2278V83ZM39.7278 81.5V53H36.7278V81.5H39.7278ZM38.2278 51.5H20.6028V54.5H38.2278V51.5ZM33.7278 28.625H20.6028V31.625H33.7278V28.625ZM33.7278 26.75H20.6028V29.75H33.7278V26.75ZM0.35951 81.6417C0.708779 85.3215 1.01819 87.7308 1.38576 89.3866C1.75964 91.0708 2.22417 92.1244 2.97025 92.9835L5.23535 91.0165C4.94229 90.679 4.63115 90.1629 4.31447 88.7364C3.99148 87.2815 3.69546 85.0391 3.34609 81.3583L0.35951 81.6417ZM0.352798 35.75V81.5H3.3528V35.75H0.352798ZM4.114 28.6698C2.76276 29.0076 1.90845 30.0127 1.37554 31.197C0.856191 32.3511 0.554631 33.8504 0.361973 35.5844L3.34363 35.9156C3.52597 34.2746 3.78691 33.1489 4.11131 32.428C4.42215 31.7373 4.69284 31.6174 4.8416 31.5802L4.114 28.6698ZM24.7278 90.5H4.1028V93.5H24.7278V90.5ZM11.6028 28.625H4.4778V31.625H11.6028V28.625ZM10.1028 28.25V30.125H13.1028V28.25H10.1028ZM12.9589 27.6089L3.20891 6.98393L0.49669 8.26607L10.2467 28.8911L12.9589 27.6089ZM3.3528 7.625V5H0.352798V7.625H3.3528ZM24.7278 3.5H1.8528V6.5H24.7278V3.5ZM24.717 0.500038C15.3228 0.567447 10.1589 1.1637 1.45562 3.55354L2.24998 6.44646C10.6644 4.13594 15.5641 3.56579 24.7386 3.49996L24.717 0.500038ZM24.7278 80H7.1028V83H24.7278V80ZM7.1028 80H1.8528V83H7.1028V80ZM8.6028 81.5V53H5.6028V81.5H8.6028ZM7.1028 54.5H24.7278V51.5H7.1028V54.5ZM11.6028 31.625H24.7278V28.625H11.6028V31.625ZM11.6028 29.75H24.7278V26.75H11.6028V29.75ZM41.9778 35.75V64.25H44.9778V35.75H41.9778ZM43.4778 65.75H45.3528V62.75H43.4778V65.75ZM43.942 64.7595C44.211 65.5045 44.3035 65.9471 44.3071 66.3268C44.3106 66.6943 44.2314 67.1233 43.9557 67.8291L46.7499 68.9209C47.1037 68.0156 47.3154 67.1877 47.307 66.2983C47.2987 65.421 47.0764 64.6066 46.7636 63.7405L43.942 64.7595ZM41.9778 64.25V68.375H44.9778V64.25H41.9778ZM41.9778 68.375V81.5H44.9778V68.375H41.9778ZM45.3528 66.875H43.4778V69.875H45.3528V66.875ZM23.3709 49.1577C26.138 48.1392 27.7395 47.1951 28.5793 46.2764C29.0173 45.7973 29.3425 45.2208 29.3864 44.5623C29.4318 43.8816 29.1613 43.3122 28.7885 42.9393L26.6671 45.0607C26.4818 44.8753 26.3761 44.6179 26.3931 44.3625C26.4087 44.1292 26.5123 44.0912 26.3651 44.2523C26.0345 44.6139 25.011 45.3573 22.3347 46.3423L23.3709 49.1577ZM22.8365 44.7499C24.3786 44.7666 25.4134 44.8581 26.0769 44.9746C26.4087 45.0329 26.6133 45.0916 26.7265 45.134C26.8585 45.1835 26.7881 45.1816 26.6671 45.0607L28.7885 42.9393C28.48 42.6309 28.102 42.4458 27.7793 42.3248C27.4377 42.1968 27.0404 42.0979 26.5959 42.0199C25.7068 41.8637 24.4916 41.7677 22.8691 41.7501L22.8365 44.7499ZM23.3709 46.3423C20.6946 45.3573 19.6711 44.6139 19.3405 44.2523C19.1933 44.0912 19.2969 44.1292 19.3125 44.3625C19.3295 44.6179 19.2238 44.8753 19.0385 45.0607L16.9171 42.9393C16.5443 43.3122 16.2737 43.8816 16.3192 44.5623C16.3631 45.2208 16.6883 45.7973 17.1262 46.2764C17.9661 47.1951 19.5676 48.1392 22.3347 49.1577L23.3709 46.3423ZM22.8365 41.7501C21.214 41.7677 19.9987 41.8637 19.1097 42.0199C18.6652 42.0979 18.2679 42.1968 17.9263 42.3248C17.6036 42.4458 17.2256 42.6309 16.9171 42.9393L19.0385 45.0607C18.9175 45.1816 18.8471 45.1835 18.9791 45.134C19.0923 45.0916 19.2969 45.0329 19.6287 44.9746C20.2922 44.8581 21.327 44.7666 22.8691 44.7499L22.8365 41.7501ZM33.7278 28.625H24.7278V31.625H33.7278V28.625ZM24.7278 28.625H20.6028V31.625H24.7278V28.625ZM20.6028 28.625H11.6028V31.625H20.6028V28.625ZM7.1028 54.5H20.6028V51.5H7.1028V54.5ZM20.6028 54.5H24.7278V51.5H20.6028V54.5ZM24.7278 54.5H38.2278V51.5H24.7278V54.5ZM38.2278 80H24.7278V83H38.2278V80ZM24.7278 80H20.6028V83H24.7278V80ZM20.6028 80H7.1028V83H20.6028V80ZM4.1028 93.5H20.6028V90.5H4.1028V93.5ZM20.6028 93.5H24.7278V90.5H20.6028V93.5ZM24.7278 93.5H41.2278V90.5H24.7278V93.5Z" fill="#2F2923"/>
</g>
<defs>
<clipPath id="clip0">
<rect width="47" height="94" fill="white" transform="translate(0.352798)"/>
</clipPath>
</defs>
</svg>
