<svg width="134" height="94" viewBox="0 0 134 94" fill="none" xmlns="http://www.w3.org/2000/svg">
<path d="M102.793 15.8937L103.29 16.8861L103.786 17.8785C109.987 15.008 112.222 15.6347 114.206 20.3596C123.164 43.4795 124.651 45.3041 132.07 43.185C120.161 4.48102 106.929 9.77387 102.793 15.8937Z" fill="#2F2923"/>
<path d="M77.4871 2C74.5098 2.99241 74.5098 8.94686 77.4871 9.93927C80.4643 8.94686 80.4643 2.99241 77.4871 2Z" fill="#2F2923"/>
<path d="M77.4871 9.93927C74.4863 9.93926 71.6784 10.3002 69.0516 11.0033C66.2113 11.7635 65.5782 12.9165 77.4871 13.4127C88.4036 12.9165 88.4036 11.8591 85.3838 11.0033C82.9173 10.3043 80.2888 9.93928 77.4871 9.93927Z" fill="#2F2923"/>
<path d="M34.8135 82.8812L33.3211 82.7303L33.3135 82.8056V82.8812H34.8135ZM120.161 82.8812H121.661V82.7881L121.649 82.6957L120.161 82.8812ZM102.793 15.8937L101.551 15.0539L101.06 15.7804L101.452 16.5645L102.793 15.8937ZM132.07 43.185L132.482 44.6273C132.869 44.5166 133.196 44.2545 133.388 43.9002C133.58 43.5459 133.622 43.1291 133.503 42.7438L132.07 43.185ZM114.206 20.3596L115.605 19.8176L115.597 19.7981L115.589 19.7787L114.206 20.3596ZM103.786 17.8785L102.444 18.5494L103.095 19.8512L104.416 19.2398L103.786 17.8785ZM2.064 15.8937L1.7386 14.4294C1.0686 14.5783 0.585122 15.163 0.564662 15.849C0.544201 16.535 0.99198 17.1475 1.65191 17.336L2.064 15.8937ZM6.52984 14.9013L7.09202 13.5106L6.65967 13.3359L6.20444 13.437L6.52984 14.9013ZM36.7626 67.499L38.2446 67.7302L36.7626 67.499ZM77.4871 1.99999L77.9614 0.576968L77.4871 0.418854L77.0127 0.576968L77.4871 1.99999ZM69.0516 11.0033L68.6637 9.5543L69.0516 11.0033ZM77.4871 13.4127L77.4246 14.9114C77.4681 14.9132 77.5117 14.9131 77.5552 14.9112L77.4871 13.4127ZM85.3838 11.0033L85.7928 9.56013L85.3838 11.0033ZM33.3135 82.8812C33.3135 85.3809 35.4335 87.1015 37.8175 88.2767C40.3314 89.5159 43.8205 90.498 47.8705 91.2633C55.9982 92.799 66.7692 93.5302 77.4914 93.499C88.2144 93.4679 98.9827 92.674 107.106 91.1232C111.155 90.3504 114.638 89.373 117.147 88.1595C118.4 87.5533 119.491 86.8497 120.287 86.0158C121.097 85.1672 121.661 84.1149 121.661 82.8812H118.661C118.661 83.1362 118.557 83.4834 118.117 83.9443C117.663 84.4199 116.921 84.936 115.84 85.4589C113.681 86.5035 110.497 87.4218 106.544 88.1764C98.6651 89.6804 88.0965 90.4682 77.4827 90.4991C66.8682 90.5299 56.3024 89.8035 48.4275 88.3155C44.4761 87.5688 41.2975 86.6475 39.144 85.5859C36.8606 84.4603 36.3135 83.4828 36.3135 82.8812H33.3135ZM121.649 82.6957C120.013 69.5662 117.711 57.0641 114.372 46.2012C111.039 35.3538 106.642 26.0372 100.756 19.3671L98.5061 21.3521C103.994 27.5709 108.232 36.4326 111.505 47.0825C114.773 57.7169 117.048 70.0311 118.672 83.0667L121.649 82.6957ZM104.631 16.2153L104.135 15.2229L101.452 16.5645L101.948 17.557L104.631 16.2153ZM104.036 16.7335C104.933 15.4063 106.304 14.1596 107.964 13.5381C109.574 12.9352 111.546 12.8821 113.827 14.0626C116.155 15.2676 118.877 17.7994 121.774 22.517C124.667 27.2253 127.681 34.024 130.636 43.6261L133.503 42.7438C130.503 32.9939 127.398 25.9403 124.331 20.9468C121.269 15.9625 118.191 12.943 115.206 11.3982C112.173 9.82888 109.318 9.8275 106.912 10.7287C104.555 11.6114 102.721 13.3212 101.551 15.0539L104.036 16.7335ZM112.808 20.9015C115.047 26.6801 116.832 31.1618 118.364 34.5899C119.888 37.9986 121.206 40.4699 122.536 42.1631C123.897 43.8973 125.356 44.9234 127.147 45.2407C128.837 45.5402 130.614 45.1607 132.482 44.6273L131.658 41.7427C129.816 42.2688 128.625 42.4558 127.67 42.2867C126.816 42.1355 125.953 41.6578 124.895 40.3107C123.806 38.9227 122.609 36.7353 121.103 33.3656C119.605 30.0153 117.845 25.599 115.605 19.8176L112.808 20.9015ZM104.416 19.2398C107.537 17.7951 109.201 17.4774 110.22 17.7275C111.061 17.9342 111.864 18.6565 112.823 20.9404L115.589 19.7787C114.564 17.3378 113.257 15.3843 110.935 14.814C108.79 14.2872 106.236 15.0914 103.156 16.5173L104.416 19.2398ZM101.948 17.557L102.444 18.5494L105.128 17.2077L104.631 16.2153L101.948 17.557ZM34.9042 69.7639C34.2989 73.9224 33.7742 78.2493 33.3211 82.7303L36.3059 83.0321C36.7552 78.589 37.2747 74.3059 37.8729 70.1961L34.9042 69.7639ZM36.5373 68.4874C33.6611 68.2008 31.4928 67.3311 29.8036 66.068C28.1069 64.7992 26.8103 63.0707 25.7794 60.9444C23.6825 56.6194 22.8021 50.9346 21.7907 44.7419C20.7988 38.6687 19.6849 32.1656 16.9956 26.6845C14.2627 21.1147 9.89122 16.57 2.47608 14.4514L1.65191 17.336C8.1305 19.187 11.8843 23.0779 14.3023 28.0059C16.7638 33.0226 17.8262 39.0797 18.8299 45.2255C19.8142 51.2519 20.7487 57.445 23.08 62.2532C24.2631 64.6936 25.8339 66.8455 28.007 68.4706C30.1878 70.1013 32.8919 71.139 36.2398 71.4726L36.5373 68.4874ZM6.20444 13.437L1.7386 14.4294L2.38939 17.358L6.85523 16.3656L6.20444 13.437ZM35.2805 67.2677C35.1517 68.0929 35.0263 68.925 34.9042 69.7639L37.8729 70.1961C37.9936 69.367 38.1175 68.545 38.2446 67.7302L35.2805 67.2677ZM36.7626 65.999C34.6515 65.999 33.0613 65.4178 31.79 64.4377C30.4927 63.4374 29.4313 61.9465 28.5334 59.9827C26.7113 55.9972 25.7526 50.5298 24.6229 44.4611C23.5129 38.4984 22.2475 32.0435 19.744 26.4814C17.2212 20.8766 13.3871 16.0555 7.09202 13.5106L5.96765 16.292C11.3334 18.4611 14.6943 22.5717 17.0083 27.7128C19.3417 32.8966 20.5551 39.0018 21.6735 45.0101C22.7723 50.9123 23.7917 56.8266 25.8051 61.2301C26.825 63.4607 28.1457 65.4161 29.9583 66.8136C31.797 68.2311 34.0445 68.999 36.7626 68.999V65.999ZM77.0127 0.576968C74.6102 1.3778 73.7541 3.97538 73.7541 5.96963C73.7541 7.96387 74.6102 10.5615 77.0127 11.3623L77.9614 8.51624C77.3867 8.32466 76.7541 7.44882 76.7541 5.96963C76.7541 4.49044 77.3867 3.61459 77.9614 3.42301L77.0127 0.576968ZM77.0127 3.42301C77.5875 3.61459 78.22 4.49044 78.22 5.96963C78.22 7.44882 77.5875 8.32466 77.0127 8.51624L77.9614 11.3623C80.3639 10.5615 81.22 7.96387 81.22 5.96963C81.22 3.97538 80.3639 1.3778 77.9614 0.576968L77.0127 3.42301ZM77.4871 8.43926C74.365 8.43925 71.426 8.81495 68.6637 9.5543L69.4394 12.4523C71.9307 11.7855 74.6076 11.4393 77.4871 11.4393V8.43926ZM68.6637 9.5543C68.2749 9.65837 67.8952 9.77656 67.558 9.91005C67.2462 10.0335 66.8642 10.2106 66.5478 10.469C66.2859 10.683 65.5913 11.3713 65.8941 12.3945C66.0211 12.8238 66.2844 13.1122 66.4887 13.2847C66.6955 13.4594 66.9201 13.5823 67.1154 13.6715C67.8377 14.0013 68.9985 14.2337 70.5657 14.423C72.1914 14.6193 74.4281 14.7865 77.4246 14.9114L77.5495 11.914C74.5916 11.7908 72.4416 11.6278 70.9254 11.4446C69.3506 11.2544 68.6144 11.058 68.3614 10.9425C68.3129 10.9204 68.3512 10.931 68.4244 10.9928C68.495 11.0524 68.6773 11.2274 68.7708 11.5433C68.8759 11.8986 68.8108 12.2333 68.6925 12.4698C68.5919 12.671 68.4701 12.7724 68.4456 12.7924C68.4019 12.8281 68.4423 12.7865 68.6622 12.6994C68.8568 12.6224 69.1182 12.5383 69.4394 12.4523L68.6637 9.5543ZM85.7928 9.56013C83.1872 8.82174 80.4207 8.43927 77.4871 8.43926V11.4393C80.1569 11.4393 82.6474 11.7869 84.9748 12.4465L85.7928 9.56013ZM77.5552 14.9112C80.3033 14.7862 82.3922 14.6249 83.9334 14.4361C85.4217 14.2538 86.5489 14.0305 87.2645 13.7163C87.4571 13.6318 87.6737 13.5181 87.8756 13.3603C88.0722 13.2067 88.3321 12.9507 88.4857 12.5622C88.878 11.5693 88.2611 10.8231 87.959 10.5529C87.6421 10.2695 87.2504 10.0788 86.9373 9.94801C86.5952 9.80517 86.2034 9.67648 85.7928 9.56013L84.9748 12.4465C85.3192 12.5441 85.5879 12.6356 85.7812 12.7163C86.0034 12.8091 86.0219 12.8453 85.9591 12.7891C85.9111 12.7461 85.3921 12.2276 85.6956 11.4596C85.8047 11.1835 85.9735 11.0393 86.0283 10.9965C86.0885 10.9495 86.1128 10.9456 86.0586 10.9694C85.7871 11.0886 85.0561 11.2761 83.5686 11.4584C82.1338 11.6341 80.1291 11.7911 77.419 11.9142L77.5552 14.9112ZM100.664 21.4474L101.186 20.9512L99.1208 18.7755L98.5981 19.2717L100.664 21.4474ZM101.186 20.9512L104.322 17.974L102.257 15.7983L99.1208 18.7755L101.186 20.9512ZM98.9567 20.7677C104.689 28.3536 107.595 32.9229 110.796 42.661L113.646 41.7241C110.311 31.5799 107.213 26.7177 101.35 18.9591L98.9567 20.7677ZM100.756 19.3671C100.313 18.8654 99.8615 18.3785 99.4013 17.9068L97.254 20.0018C97.6782 20.4366 98.0955 20.8868 98.5061 21.3521L100.756 19.3671ZM99.4013 17.9068C95.5187 13.927 91.0127 11.0394 85.7928 9.56013L84.9748 12.4465C89.6202 13.7629 93.6834 16.3418 97.254 20.0018L99.4013 17.9068ZM68.6637 9.5543C63.2305 11.0086 58.5446 13.8523 54.5245 17.8968L56.6522 20.0117C60.332 16.3096 64.5619 13.7578 69.4394 12.4523L68.6637 9.5543ZM54.5245 17.8968C44.5899 27.8917 38.7206 45.2208 35.2805 67.2677L38.2446 67.7302C41.6692 45.7831 47.4311 29.2888 56.6522 20.0117L54.5245 17.8968ZM96.8277 18.9543C96.8277 18.4372 97.1861 18.27 97.0147 18.3845C96.883 18.4724 96.5881 18.6135 96.0589 18.7728C95.0216 19.085 93.4592 19.3594 91.4833 19.5798C87.5565 20.0179 82.2779 20.2138 76.9667 20.183C71.657 20.1521 66.3729 19.8951 62.4383 19.4409C60.4599 19.2125 58.8848 18.941 57.8329 18.6436C57.2953 18.4916 56.9864 18.3577 56.8433 18.2714C56.6102 18.1307 57.0883 18.3188 57.0883 18.9543H54.0883C54.0883 20.0135 54.9003 20.6028 55.2933 20.8399C55.7763 21.1314 56.3856 21.352 57.0167 21.5304C58.302 21.8938 60.0659 22.187 62.0943 22.4211C66.1734 22.892 71.5741 23.1517 76.9493 23.1829C82.3229 23.2141 87.7291 23.0173 91.8159 22.5613C93.8469 22.3347 95.6235 22.0368 96.9235 21.6455C97.5629 21.453 98.1863 21.2095 98.6806 20.8794C99.1352 20.5759 99.8277 19.9572 99.8277 18.9543H96.8277Z" fill="#2F2923"/>
</svg>
