<svg width="100" height="100" viewBox="0 0 100 100" fill="none" xmlns="http://www.w3.org/2000/svg">
<path d="M15 1.5H85C92.4558 1.5 98.5 7.54416 98.5 15V85C98.5 92.4558 92.4558 98.5 85 98.5H15C7.54415 98.5 1.5 92.4558 1.5 85V15C1.5 7.54415 7.54416 1.5 15 1.5Z" stroke="black" stroke-width="3"/>
<line x1="1" y1="87.5" x2="99" y2="87.5" stroke="black"/>
<line x1="1" y1="69.5" x2="99" y2="69.5" stroke="black"/>
<path d="M84.2 72H81.08L80.56 72.52L81.08 73.04H84.2L84.72 72.52L84.2 72Z" fill="black"/>
<path d="M85.24 77.2V74.08L85.76 73.56L86.28 74.08V77.2L85.76 77.72L85.24 77.2Z" fill="black"/>
<path d="M85.24 79.8V82.92L85.76 83.44L86.28 82.92V79.8L85.76 79.28L85.24 79.8Z" fill="black"/>
<path d="M84.2 85H81.08L80.56 84.48L81.08 83.96H84.2L84.72 84.48L84.2 85Z" fill="black"/>
<path d="M80.04 77.2V74.08L79.52 73.56L79 74.08V77.2L79.52 77.72L80.04 77.2Z" fill="black"/>
<path d="M80.04 79.8V82.92L79.52 83.44L79 82.92V79.8L79.52 79.28L80.04 79.8Z" fill="black"/>
<path d="M84.2 72H81.08L80.56 72.52L81.08 73.04H84.2L84.72 72.52L84.2 72Z" stroke="black"/>
<path d="M85.24 77.2V74.08L85.76 73.56L86.28 74.08V77.2L85.76 77.72L85.24 77.2Z" stroke="black"/>
<path d="M85.24 79.8V82.92L85.76 83.44L86.28 82.92V79.8L85.76 79.28L85.24 79.8Z" stroke="black"/>
<path d="M84.2 85H81.08L80.56 84.48L81.08 83.96H84.2L84.72 84.48L84.2 85Z" stroke="black"/>
<path d="M80.04 77.2V74.08L79.52 73.56L79 74.08V77.2L79.52 77.72L80.04 77.2Z" stroke="black"/>
<path d="M80.04 79.8V82.92L79.52 83.44L79 82.92V79.8L79.52 79.28L80.04 79.8Z" stroke="black"/>
<path d="M72.2 72H69.08L68.56 72.52L69.08 73.04H72.2L72.72 72.52L72.2 72Z" fill="black"/>
<path d="M73.24 77.2V74.08L73.76 73.56L74.28 74.08V77.2L73.76 77.72L73.24 77.2Z" fill="black"/>
<path d="M73.24 79.8V82.92L73.76 83.44L74.28 82.92V79.8L73.76 79.28L73.24 79.8Z" fill="black"/>
<path d="M72.2 85H69.08L68.56 84.48L69.08 83.96H72.2L72.72 84.48L72.2 85Z" fill="black"/>
<path d="M68.04 77.2V74.08L67.52 73.56L67 74.08V77.2L67.52 77.72L68.04 77.2Z" fill="black"/>
<path d="M68.04 79.8V82.92L67.52 83.44L67 82.92V79.8L67.52 79.28L68.04 79.8Z" fill="black"/>
<path d="M72.2 72H69.08L68.56 72.52L69.08 73.04H72.2L72.72 72.52L72.2 72Z" stroke="black"/>
<path d="M73.24 77.2V74.08L73.76 73.56L74.28 74.08V77.2L73.76 77.72L73.24 77.2Z" stroke="black"/>
<path d="M73.24 79.8V82.92L73.76 83.44L74.28 82.92V79.8L73.76 79.28L73.24 79.8Z" stroke="black"/>
<path d="M72.2 85H69.08L68.56 84.48L69.08 83.96H72.2L72.72 84.48L72.2 85Z" stroke="black"/>
<path d="M68.04 77.2V74.08L67.52 73.56L67 74.08V77.2L67.52 77.72L68.04 77.2Z" stroke="black"/>
<path d="M68.04 79.8V82.92L67.52 83.44L67 82.92V79.8L67.52 79.28L68.04 79.8Z" stroke="black"/>
<circle cx="76.75" cy="85.25" r="0.75" fill="black"/>
</svg>
