<svg width="80" height="101" viewBox="0 0 80 101" fill="none" xmlns="http://www.w3.org/2000/svg">
<path d="M2.63038 92.3935C1.80195 92.3935 1.13038 93.0651 1.13038 93.8935C1.13038 94.7219 1.80195 95.3935 2.63038 95.3935V92.3935ZM77.3474 95.3935C78.1758 95.3935 78.8474 94.7219 78.8474 93.8935C78.8474 93.0651 78.1758 92.3935 77.3474 92.3935V95.3935ZM58.6681 93.8935V92.3935C57.8397 92.3935 57.1681 93.0651 57.1681 93.8935H58.6681ZM21.3096 93.8935H22.8096C22.8096 93.0651 22.1381 92.3935 21.3096 92.3935V93.8935ZM21.3096 98.6482H19.8096C19.8096 99.4766 20.4812 100.148 21.3096 100.148V98.6482ZM58.6681 98.6482V100.148C59.4966 100.148 60.1681 99.4766 60.1681 98.6482H58.6681ZM77.3474 49.0633L78.6216 49.8548C78.9089 49.3923 78.923 48.8103 78.6584 48.3344C78.3937 47.8584 77.892 47.5633 77.3474 47.5633V49.0633ZM2.63038 49.0633V47.5633C2.09177 47.5633 1.59451 47.8521 1.32757 48.3199C1.06062 48.7877 1.06498 49.3627 1.33899 49.8264L2.63038 49.0633ZM6.02661 44.3086L5.23414 43.035C4.86269 43.2661 4.61066 43.6479 4.54408 44.0803C4.4775 44.5127 4.60301 44.9526 4.88772 45.2848L6.02661 44.3086ZM73.9512 44.3086L75.0901 45.2848C75.3748 44.9526 75.5003 44.5127 75.4337 44.0803C75.3671 43.6479 75.1151 43.2661 74.7436 43.035L73.9512 44.3086ZM59.2786 39.0081L59.5801 37.5387L59.2786 39.0081ZM39.3096 2L40.5438 1.14749C40.2638 0.742035 39.8024 0.5 39.3096 0.5C38.8169 0.5 38.3555 0.742035 38.0755 1.14749L39.3096 2ZM30.3096 20L31.5438 19.1475C31.2638 18.742 30.8024 18.5 30.3096 18.5C29.8169 18.5 29.3555 18.742 29.0755 19.1475L30.3096 20ZM48.3096 20L49.5438 19.1475C49.2638 18.742 48.8024 18.5 48.3096 18.5C47.8169 18.5 47.3555 18.742 47.0755 19.1475L48.3096 20ZM58.6681 95.3935H77.3474V92.3935H58.6681V95.3935ZM2.63038 95.3935H21.3096V92.3935H2.63038V95.3935ZM22.8096 98.6482V93.8935H19.8096V98.6482H22.8096ZM60.1681 98.6482V93.8935H57.1681V98.6482H60.1681ZM21.3096 100.148H58.6681V97.1482H21.3096V100.148ZM49.4983 95.3935H77.3474V92.3935H49.4983V95.3935ZM50.7725 94.685L78.6216 49.8548L76.0732 48.2718L48.2242 93.102L50.7725 94.685ZM2.63038 95.3935H29.121V92.3935H2.63038V95.3935ZM1.33899 49.8264L27.8296 94.6566L30.4123 93.1304L3.92177 48.3002L1.33899 49.8264ZM10.1021 47.5633H2.63038V50.5633H10.1021V47.5633ZM11.241 48.0871L7.16549 43.3324L4.88772 45.2848L8.96319 50.0395L11.241 48.0871ZM77.3474 47.5633H69.8757V50.5633H77.3474V47.5633ZM71.0146 50.0395L75.0901 45.2848L72.8123 43.3324L68.7368 48.0871L71.0146 50.0395ZM29.121 95.3935H39.3096V92.3935H29.121V95.3935ZM39.3096 95.3935H49.4983V92.3935H39.3096V95.3935ZM74.7436 43.035C70.7675 40.5609 65.4662 38.7465 59.5801 37.5387L58.9771 40.4775C64.6749 41.6466 69.5969 43.3659 73.1587 45.5822L74.7436 43.035ZM59.5801 37.5387C50.573 35.6905 39.9897 35.2212 30.1985 36.1164C20.4448 37.0082 11.2824 39.2716 5.23414 43.035L6.81907 45.5822C12.2848 42.1812 20.9014 39.979 30.4716 39.1039C40.0044 38.2323 50.2901 38.6949 58.9771 40.4775L59.5801 37.5387ZM69.8757 47.5633H53.4184V50.5633H69.8757V47.5633ZM53.4184 47.5633H10.1021V50.5633H53.4184V47.5633ZM39.3096 17C42.6233 17 45.3096 14.3137 45.3096 11H42.3096C42.3096 12.6569 40.9665 14 39.3096 14V17ZM45.3096 11C45.3096 10.038 44.9063 8.91273 44.4798 7.94192C44.0262 6.90953 43.4331 5.8083 42.8571 4.81535C42.2783 3.81749 41.7016 2.90314 41.2707 2.23976C41.0549 1.90742 40.8747 1.63652 40.7478 1.44778C40.6843 1.35338 40.6341 1.27944 40.5994 1.22855C40.582 1.2031 40.5685 1.18341 40.5592 1.16979C40.5545 1.16299 40.5509 1.1577 40.5483 1.15397C40.547 1.1521 40.546 1.15063 40.5452 1.14954C40.5449 1.149 40.5446 1.14856 40.5443 1.14822C40.5442 1.14805 40.5441 1.14787 40.544 1.14778C40.5439 1.14762 40.5438 1.14749 39.3096 2C38.0755 2.85251 38.0754 2.85243 38.0754 2.85237C38.0754 2.85238 38.0753 2.85235 38.0754 2.85238C38.0754 2.85243 38.0755 2.85258 38.0757 2.85283C38.076 2.85333 38.0766 2.85422 38.0775 2.8555C38.0793 2.85805 38.0821 2.86214 38.0859 2.86773C38.0936 2.87892 38.1054 2.89611 38.121 2.91899C38.1522 2.96474 38.1987 3.0332 38.2582 3.12179C38.3774 3.29903 38.5487 3.55651 38.7548 3.87375C39.1677 4.50955 39.716 5.37921 40.2621 6.32069C40.8111 7.26708 41.343 8.26052 41.7332 9.14862C42.1504 10.0983 42.3096 10.7194 42.3096 11H45.3096ZM39.3096 2C38.0755 1.14749 38.0754 1.14762 38.0753 1.14778C38.0752 1.14787 38.0751 1.14805 38.0749 1.14822C38.0747 1.14856 38.0744 1.149 38.074 1.14954C38.0733 1.15063 38.0723 1.1521 38.071 1.15397C38.0684 1.1577 38.0648 1.16299 38.0601 1.16979C38.0508 1.18341 38.0373 1.2031 38.0199 1.22855C37.9852 1.27944 37.935 1.35338 37.8715 1.44778C37.7446 1.63652 37.5644 1.90742 37.3485 2.23976C36.9177 2.90314 36.341 3.81749 35.7621 4.81535C35.1861 5.8083 34.593 6.90953 34.1395 7.94192C33.7129 8.91273 33.3096 10.038 33.3096 11H36.3096C36.3096 10.7194 36.4688 10.0983 36.8861 9.14862C37.2762 8.26052 37.8081 7.26708 38.3571 6.32069C38.9033 5.37921 39.4516 4.50955 39.8645 3.87375C40.0705 3.55651 40.2419 3.29903 40.361 3.12179C40.4206 3.0332 40.4671 2.96474 40.4983 2.91899C40.5139 2.89611 40.5257 2.87892 40.5334 2.86773C40.5372 2.86214 40.54 2.85805 40.5418 2.8555C40.5427 2.85422 40.5433 2.85333 40.5436 2.85283C40.5438 2.85258 40.5439 2.85243 40.5439 2.85238C40.5439 2.85235 40.5439 2.85238 40.5439 2.85237C40.5439 2.85243 40.5438 2.85251 39.3096 2ZM33.3096 11C33.3096 14.3137 35.9959 17 39.3096 17V14C37.6528 14 36.3096 12.6569 36.3096 11H33.3096ZM30.3096 35C33.6233 35 36.3096 32.3137 36.3096 29H33.3096C33.3096 30.6569 31.9665 32 30.3096 32V35ZM36.3096 29C36.3096 28.038 35.9063 26.9127 35.4798 25.9419C35.0262 24.9095 34.4331 23.8083 33.8571 22.8154C33.2783 21.8175 32.7016 20.9031 32.2707 20.2398C32.0549 19.9074 31.8747 19.6365 31.7478 19.4478C31.6843 19.3534 31.6341 19.2794 31.5994 19.2286C31.582 19.2031 31.5685 19.1834 31.5592 19.1698C31.5545 19.163 31.5509 19.1577 31.5483 19.154C31.547 19.1521 31.546 19.1506 31.5452 19.1495C31.5449 19.149 31.5446 19.1486 31.5443 19.1482C31.5442 19.148 31.5441 19.1479 31.544 19.1478C31.5439 19.1476 31.5438 19.1475 30.3096 20C29.0755 20.8525 29.0754 20.8524 29.0754 20.8524C29.0754 20.8524 29.0753 20.8523 29.0754 20.8524C29.0754 20.8524 29.0755 20.8526 29.0757 20.8528C29.076 20.8533 29.0766 20.8542 29.0775 20.8555C29.0793 20.858 29.0821 20.8621 29.0859 20.8677C29.0936 20.8789 29.1054 20.8961 29.121 20.919C29.1522 20.9647 29.1987 21.0332 29.2582 21.1218C29.3774 21.299 29.5487 21.5565 29.7548 21.8738C30.1677 22.5095 30.716 23.3792 31.2621 24.3207C31.8111 25.2671 32.343 26.2605 32.7332 27.1486C33.1504 28.0983 33.3096 28.7194 33.3096 29H36.3096ZM30.3096 20C29.0755 19.1475 29.0754 19.1476 29.0753 19.1478C29.0752 19.1479 29.0751 19.148 29.0749 19.1482C29.0747 19.1486 29.0744 19.149 29.074 19.1495C29.0733 19.1506 29.0723 19.1521 29.071 19.154C29.0684 19.1577 29.0648 19.163 29.0601 19.1698C29.0508 19.1834 29.0373 19.2031 29.0199 19.2286C28.9852 19.2794 28.935 19.3534 28.8715 19.4478C28.7446 19.6365 28.5644 19.9074 28.3485 20.2398C27.9177 20.9031 27.341 21.8175 26.7621 22.8154C26.1861 23.8083 25.593 24.9095 25.1395 25.9419C24.7129 26.9127 24.3096 28.038 24.3096 29H27.3096C27.3096 28.7194 27.4688 28.0983 27.8861 27.1486C28.2762 26.2605 28.8081 25.2671 29.3571 24.3207C29.9033 23.3792 30.4516 22.5095 30.8645 21.8738C31.0705 21.5565 31.2419 21.299 31.361 21.1218C31.4206 21.0332 31.4671 20.9647 31.4983 20.919C31.5139 20.8961 31.5257 20.8789 31.5334 20.8677C31.5372 20.8621 31.54 20.858 31.5418 20.8555C31.5427 20.8542 31.5433 20.8533 31.5436 20.8528C31.5438 20.8526 31.5439 20.8524 31.5439 20.8524C31.5439 20.8523 31.5439 20.8524 31.5439 20.8524C31.5439 20.8524 31.5438 20.8525 30.3096 20ZM24.3096 29C24.3096 32.3137 26.9959 35 30.3096 35V32C28.6528 32 27.3096 30.6569 27.3096 29H24.3096ZM48.3096 35C51.6233 35 54.3096 32.3137 54.3096 29H51.3096C51.3096 30.6569 49.9665 32 48.3096 32V35ZM54.3096 29C54.3096 28.038 53.9063 26.9127 53.4798 25.9419C53.0262 24.9095 52.4331 23.8083 51.8571 22.8154C51.2783 21.8175 50.7016 20.9031 50.2707 20.2398C50.0549 19.9074 49.8747 19.6365 49.7478 19.4478C49.6843 19.3534 49.6341 19.2794 49.5994 19.2286C49.582 19.2031 49.5685 19.1834 49.5592 19.1698C49.5545 19.163 49.5509 19.1577 49.5483 19.154C49.547 19.1521 49.546 19.1506 49.5452 19.1495C49.5449 19.149 49.5446 19.1486 49.5443 19.1482C49.5442 19.148 49.5441 19.1479 49.544 19.1478C49.5439 19.1476 49.5438 19.1475 48.3096 20C47.0755 20.8525 47.0754 20.8524 47.0754 20.8524C47.0754 20.8524 47.0753 20.8523 47.0754 20.8524C47.0754 20.8524 47.0755 20.8526 47.0757 20.8528C47.076 20.8533 47.0766 20.8542 47.0775 20.8555C47.0793 20.858 47.0821 20.8621 47.0859 20.8677C47.0936 20.8789 47.1054 20.8961 47.121 20.919C47.1522 20.9647 47.1987 21.0332 47.2582 21.1218C47.3774 21.299 47.5487 21.5565 47.7548 21.8738C48.1677 22.5095 48.716 23.3792 49.2621 24.3207C49.8111 25.2671 50.343 26.2605 50.7332 27.1486C51.1504 28.0983 51.3096 28.7194 51.3096 29H54.3096ZM48.3096 20C47.0755 19.1475 47.0754 19.1476 47.0753 19.1478C47.0752 19.1479 47.0751 19.148 47.0749 19.1482C47.0747 19.1486 47.0744 19.149 47.074 19.1495C47.0733 19.1506 47.0723 19.1521 47.071 19.154C47.0684 19.1577 47.0648 19.163 47.0601 19.1698C47.0508 19.1834 47.0373 19.2031 47.0199 19.2286C46.9852 19.2794 46.935 19.3534 46.8715 19.4478C46.7446 19.6365 46.5644 19.9074 46.3485 20.2398C45.9177 20.9031 45.341 21.8175 44.7621 22.8154C44.1861 23.8083 43.593 24.9095 43.1395 25.9419C42.7129 26.9127 42.3096 28.038 42.3096 29H45.3096C45.3096 28.7194 45.4688 28.0983 45.8861 27.1486C46.2762 26.2605 46.8081 25.2671 47.3571 24.3207C47.9033 23.3792 48.4516 22.5095 48.8645 21.8738C49.0705 21.5565 49.2419 21.299 49.361 21.1218C49.4206 21.0332 49.4671 20.9647 49.4983 20.919C49.5139 20.8961 49.5257 20.8789 49.5334 20.8677C49.5372 20.8621 49.54 20.858 49.5418 20.8555C49.5427 20.8542 49.5433 20.8533 49.5436 20.8528C49.5438 20.8526 49.5439 20.8524 49.5439 20.8524C49.5439 20.8523 49.5439 20.8524 49.5439 20.8524C49.5439 20.8524 49.5438 20.8525 48.3096 20ZM42.3096 29C42.3096 32.3137 44.9959 35 48.3096 35V32C46.6528 32 45.3096 30.6569 45.3096 29H42.3096Z" fill="#2F2923"/>
<path d="M56.961 40.0654L55.4548 43.0777" stroke="black" stroke-linecap="round"/>
<path d="M54.6579 44.6353L53.1517 47.6476" stroke="black" stroke-linecap="round" stroke-linejoin="round"/>
</svg>
